<svg xmlns="http://www.w3.org/2000/svg" viewBox="0 0 96 96" fill="none" aria-hidden="true">
  <circle cx="48" cy="34" r="14" stroke="#fff" stroke-width="2.2" opacity="0.9"/>
  <circle cx="42" cy="32" r="2" fill="#2dd4bf"/>
  <circle cx="54" cy="32" r="2" fill="#2dd4bf"/>
  <path d="M42 40c3 3 9 3 12 0" stroke="#2dd4bf" stroke-width="2" stroke-linecap="round"/>
  <path d="M44 56c-2 6-2 12 4 16 6-4 6-10 4-16" stroke="#fff" stroke-width="2.2" stroke-linecap="round" stroke-linejoin="round" opacity="0.95"/>
  <path d="M40 64c-1 5 0 10 4 14 4-4 5-9 4-14" stroke="#2dd4bf" stroke-width="2.2" stroke-linecap="round" stroke-linejoin="round"/>
  <path d="M24 28l4 2M72 28l-4 2M20 48l5-1M76 48l-5-1" stroke="#2dd4bf" stroke-width="1.8" stroke-linecap="round" opacity="0.8"/>
</svg>
